# xmcd
#
# Track frame offsets: 
#        150
#        64443
#        86013
#        101013
#        128988
#        186813
#        228138
#        277263
#        307788
#        335238
#
# Disc length: 4818 seconds
#
# Revision: 7
# Processed by: cddbd v1.5.2PL0 Copyright (c) Steve Scherf et al.
# Submitted via: ExactAudioCopy v1.0b3
#
DISCID=9212d00a
DTITLE=Frédéric Chopin - Musique de chambre
DYEAR=2006
DGENRE=Romantique
TTITLE0=Frédéric Chopin et Auguste-Joseph Franchomme - Sonate pour Vc 
TTITLE0=V et P en sol mineur op. 65 - 1. Allegro moderato
TTITLE1=Frédéric Chopin et Auguste-Joseph Franchomme - Sonate pour Vc 
TTITLE1=V et P en sol mineur op. 65 - 2. Scherzo - Allegro con brio
TTITLE2=Frédéric Chopin et Auguste-Joseph Franchomme - Sonate pour Vc 
TTITLE2=V et P en sol mineur op. 65 - 3. Largo
TTITLE3=Frédéric Chopin et Auguste-Joseph Franchomme - Sonate pour Vc 
TTITLE3=V et P en sol mineur op. 65 - 4. Finale - Allegro
TTITLE4=Frédéric Chopin et Auguste-Joseph Franchomme - Grand Duo conce
TTITLE4=rtant sur 'Robert le Diable' de Meyerbeer pour Vc et P en mi M
TTITLE5=Introduction et Polonaise brillante pour violoncelle et piano 
TTITLE5=en ut majeur op. 3
TTITLE6=Trio à clavier en sol mineur op. 8 - 1.  Allegro con fuoco
TTITLE7=Trio à clavier en sol mineur op. 8 - 2.  Scherzo - con moto ma
TTITLE7=non troppo
TTITLE8=Trio à clavier en sol mineur op. 8 - 3.  Agagio sostenuto
TTITLE9=Trio à clavier en sol mineur op. 8 - 4.  Finale - Allegretto
EXTD=YEAR: 2006
EXTT0=
EXTT1=
EXTT2=
EXTT3=
EXTT4=
EXTT5=
EXTT6=
EXTT7=
EXTT8=
EXTT9=
PLAYORDER=
